<svg width="720" height="405" viewBox="0 0 720 405" fill="none" xmlns="http://www.w3.org/2000/svg">
<g clip-path="url(#clip0_3580_7753)">
<mask id="mask0_3580_7753" style="mask-type:luminance" maskUnits="userSpaceOnUse" x="0" y="0" width="720" height="405">
<path d="M720 0H0V405H720V0Z" fill="white"/>
</mask>
<g mask="url(#mask0_3580_7753)">
<path d="M720 0H0V405H720V0Z" fill="white"/>
<path fill-rule="evenodd" clip-rule="evenodd" d="M325 147.43C328.053 147.434 331.038 146.532 333.578 144.839C336.118 143.146 338.099 140.738 339.27 137.919C340.441 135.1 340.749 131.996 340.156 129.002C339.563 126.008 338.095 123.256 335.938 121.096C333.781 118.937 331.031 117.465 328.038 116.868C325.044 116.271 321.94 116.575 319.12 117.743C316.299 118.91 313.888 120.888 312.192 123.425C310.495 125.963 309.59 128.947 309.59 132C309.59 136.089 311.213 140.01 314.102 142.904C316.992 145.797 320.911 147.425 325 147.43ZM325 126.86C326.016 126.862 327.009 127.165 327.853 127.731C328.697 128.297 329.354 129.101 329.742 130.04C330.129 130.979 330.229 132.012 330.03 133.009C329.831 134.005 329.34 134.92 328.621 135.638C327.902 136.356 326.986 136.844 325.989 137.042C324.992 137.239 323.959 137.137 323.021 136.748C322.082 136.358 321.28 135.7 320.716 134.855C320.151 134.01 319.85 133.016 319.85 132C319.85 131.324 319.983 130.655 320.242 130.031C320.501 129.406 320.881 128.839 321.359 128.362C321.837 127.885 322.405 127.506 323.03 127.248C323.655 126.991 324.324 126.859 325 126.86ZM422.73 96H299.3C297.949 95.9987 296.61 96.2635 295.361 96.7795C294.112 97.2954 292.977 98.0522 292.021 99.0068C291.064 99.9614 290.305 101.095 289.787 102.343C289.269 103.591 289.001 104.929 289 106.28V229.71C289 232.439 290.084 235.056 292.014 236.986C293.944 238.916 296.561 240 299.29 240H422.73C424.08 239.999 425.417 239.731 426.663 239.214C427.91 238.696 429.042 237.938 429.996 236.982C430.95 236.026 431.706 234.892 432.221 233.645C432.737 232.397 433.001 231.06 433 229.71V106.29C433.001 104.94 432.737 103.603 432.221 102.355C431.706 101.108 430.95 99.9735 429.996 99.018C429.042 98.0625 427.91 97.3042 426.663 96.7864C425.417 96.2685 424.08 96.0013 422.73 96ZM422.73 229.71H299.3V204H422.73V229.71ZM316.4 193.71L333.12 171.43L346 188.57L342.15 193.71H316.4ZM354.97 193.71L379.4 161.14L403.83 193.71H354.97ZM422.73 193.71H416.73L383.56 149.49C383.114 148.949 382.565 148.501 381.945 148.172C381.326 147.843 380.648 147.639 379.949 147.572C379.251 147.505 378.546 147.576 377.875 147.782C377.205 147.988 376.581 148.323 376.04 148.77C375.778 148.987 375.537 149.228 375.32 149.49L352.4 180L337.23 159.77C336.332 158.679 335.038 157.989 333.631 157.852C332.225 157.715 330.822 158.143 329.73 159.04C329.462 159.257 329.217 159.502 329 159.77L303.54 193.71H299.3V106.29H422.73V193.71Z" fill="#EBE7DD"/>
</g>
<path d="M559.15 300.2C559.15 300.893 559.11 301.627 559.03 302.4H541.51C541.644 304.56 542.377 306.253 543.71 307.48C545.07 308.68 546.71 309.28 548.63 309.28C550.204 309.28 551.51 308.92 552.55 308.2C553.617 307.453 554.364 306.467 554.79 305.24H558.71C558.124 307.347 556.95 309.067 555.19 310.4C553.43 311.707 551.244 312.36 548.63 312.36C546.55 312.36 544.684 311.893 543.03 310.96C541.404 310.027 540.124 308.707 539.19 307C538.257 305.267 537.79 303.267 537.79 301C537.79 298.733 538.244 296.747 539.15 295.04C540.057 293.333 541.324 292.027 542.95 291.12C544.604 290.187 546.497 289.72 548.63 289.72C550.71 289.72 552.55 290.173 554.15 291.08C555.75 291.987 556.977 293.24 557.83 294.84C558.71 296.413 559.15 298.2 559.15 300.2ZM555.39 299.44C555.39 298.053 555.084 296.867 554.47 295.88C553.857 294.867 553.017 294.107 551.95 293.6C550.91 293.067 549.75 292.8 548.47 292.8C546.63 292.8 545.057 293.387 543.75 294.56C542.47 295.733 541.737 297.36 541.55 299.44H555.39Z" fill="#686664"/>
<path d="M532.947 282.4V312H529.307V282.4H532.947Z" fill="#686664"/>
<path d="M505.915 294.16C506.662 292.853 507.755 291.787 509.195 290.96C510.635 290.133 512.275 289.72 514.115 289.72C516.089 289.72 517.862 290.187 519.435 291.12C521.009 292.053 522.249 293.373 523.155 295.08C524.062 296.76 524.515 298.72 524.515 300.96C524.515 303.173 524.062 305.147 523.155 306.88C522.249 308.613 520.995 309.96 519.395 310.92C517.822 311.88 516.062 312.36 514.115 312.36C512.222 312.36 510.555 311.947 509.115 311.12C507.702 310.293 506.635 309.24 505.915 307.96V312H502.275V282.4H505.915V294.16ZM520.795 300.96C520.795 299.307 520.462 297.867 519.795 296.64C519.129 295.413 518.222 294.48 517.075 293.84C515.955 293.2 514.715 292.88 513.355 292.88C512.022 292.88 510.782 293.213 509.635 293.88C508.515 294.52 507.609 295.467 506.915 296.72C506.249 297.947 505.915 299.373 505.915 301C505.915 302.653 506.249 304.107 506.915 305.36C507.609 306.587 508.515 307.533 509.635 308.2C510.782 308.84 512.022 309.16 513.355 309.16C514.715 309.16 515.955 308.84 517.075 308.2C518.222 307.533 519.129 306.587 519.795 305.36C520.462 304.107 520.795 302.64 520.795 300.96Z" fill="#686664"/>
<path d="M473.884 300.96C473.884 298.72 474.337 296.76 475.244 295.08C476.151 293.373 477.391 292.053 478.964 291.12C480.564 290.187 482.337 289.72 484.284 289.72C486.204 289.72 487.871 290.133 489.284 290.96C490.697 291.787 491.751 292.827 492.444 294.08V290.08H496.124V312H492.444V307.92C491.724 309.2 490.644 310.267 489.204 311.12C487.791 311.947 486.137 312.36 484.244 312.36C482.297 312.36 480.537 311.88 478.964 310.92C477.391 309.96 476.151 308.613 475.244 306.88C474.337 305.147 473.884 303.173 473.884 300.96ZM492.444 301C492.444 299.347 492.111 297.907 491.444 296.68C490.777 295.453 489.871 294.52 488.724 293.88C487.604 293.213 486.364 292.88 485.004 292.88C483.644 292.88 482.404 293.2 481.284 293.84C480.164 294.48 479.271 295.413 478.604 296.64C477.937 297.867 477.604 299.307 477.604 300.96C477.604 302.64 477.937 304.107 478.604 305.36C479.271 306.587 480.164 307.533 481.284 308.2C482.404 308.84 483.644 309.16 485.004 309.16C486.364 309.16 487.604 308.84 488.724 308.2C489.871 307.533 490.777 306.587 491.444 305.36C492.111 304.107 492.444 302.653 492.444 301Z" fill="#686664"/>
<path d="M469.04 282.4V312H465.4V282.4H469.04Z" fill="#686664"/>
<path d="M457.437 286.52C456.743 286.52 456.157 286.28 455.677 285.8C455.197 285.32 454.957 284.733 454.957 284.04C454.957 283.347 455.197 282.76 455.677 282.28C456.157 281.8 456.743 281.56 457.437 281.56C458.103 281.56 458.663 281.8 459.117 282.28C459.597 282.76 459.837 283.347 459.837 284.04C459.837 284.733 459.597 285.32 459.117 285.8C458.663 286.28 458.103 286.52 457.437 286.52ZM459.197 290.08V312H455.557V290.08H459.197Z" fill="#686664"/>
<path d="M427.165 300.96C427.165 298.72 427.619 296.76 428.525 295.08C429.432 293.373 430.672 292.053 432.245 291.12C433.845 290.187 435.619 289.72 437.565 289.72C439.485 289.72 441.152 290.133 442.565 290.96C443.979 291.787 445.032 292.827 445.725 294.08V290.08H449.405V312H445.725V307.92C445.005 309.2 443.925 310.267 442.485 311.12C441.072 311.947 439.419 312.36 437.525 312.36C435.579 312.36 433.819 311.88 432.245 310.92C430.672 309.96 429.432 308.613 428.525 306.88C427.619 305.147 427.165 303.173 427.165 300.96ZM445.725 301C445.725 299.347 445.392 297.907 444.725 296.68C444.059 295.453 443.152 294.52 442.005 293.88C440.885 293.213 439.645 292.88 438.285 292.88C436.925 292.88 435.685 293.2 434.565 293.84C433.445 294.48 432.552 295.413 431.885 296.64C431.219 297.867 430.885 299.307 430.885 300.96C430.885 302.64 431.219 304.107 431.885 305.36C432.552 306.587 433.445 307.533 434.565 308.2C435.685 308.84 436.925 309.16 438.285 309.16C439.645 309.16 440.885 308.84 442.005 308.2C443.152 307.533 444.059 306.587 444.725 305.36C445.392 304.107 445.725 302.653 445.725 301Z" fill="#686664"/>
<path d="M414.264 308.64L421.064 290.08H424.944L416.344 312H412.104L403.504 290.08H407.424L414.264 308.64Z" fill="#686664"/>
<path d="M377.712 300.96C377.712 298.72 378.166 296.76 379.072 295.08C379.979 293.373 381.219 292.053 382.792 291.12C384.392 290.187 386.166 289.72 388.112 289.72C390.032 289.72 391.699 290.133 393.112 290.96C394.526 291.787 395.579 292.827 396.272 294.08V290.08H399.952V312H396.272V307.92C395.552 309.2 394.472 310.267 393.032 311.12C391.619 311.947 389.966 312.36 388.072 312.36C386.126 312.36 384.366 311.88 382.792 310.92C381.219 309.96 379.979 308.613 379.072 306.88C378.166 305.147 377.712 303.173 377.712 300.96ZM396.272 301C396.272 299.347 395.939 297.907 395.272 296.68C394.606 295.453 393.699 294.52 392.552 293.88C391.432 293.213 390.192 292.88 388.832 292.88C387.472 292.88 386.232 293.2 385.112 293.84C383.992 294.48 383.099 295.413 382.432 296.64C381.766 297.867 381.432 299.307 381.432 300.96C381.432 302.64 381.766 304.107 382.432 305.36C383.099 306.587 383.992 307.533 385.112 308.2C386.232 308.84 387.472 309.16 388.832 309.16C390.192 309.16 391.432 308.84 392.552 308.2C393.699 307.533 394.606 306.587 395.272 305.36C395.939 304.107 396.272 302.653 396.272 301Z" fill="#686664"/>
<path d="M358.278 293.08V306C358.278 307.067 358.505 307.827 358.958 308.28C359.411 308.707 360.198 308.92 361.318 308.92H363.998V312H360.718C358.691 312 357.171 311.533 356.158 310.6C355.145 309.667 354.638 308.133 354.638 306V293.08H351.798V290.08H354.638V284.56H358.278V290.08H363.998V293.08H358.278Z" fill="#686664"/>
<path d="M337.812 312.36C335.759 312.36 333.892 311.893 332.212 310.96C330.559 310.027 329.252 308.707 328.292 307C327.359 305.267 326.892 303.267 326.892 301C326.892 298.76 327.372 296.787 328.332 295.08C329.319 293.347 330.652 292.027 332.332 291.12C334.012 290.187 335.892 289.72 337.972 289.72C340.052 289.72 341.932 290.187 343.612 291.12C345.292 292.027 346.612 293.333 347.572 295.04C348.559 296.747 349.052 298.733 349.052 301C349.052 303.267 348.545 305.267 347.532 307C346.545 308.707 345.199 310.027 343.492 310.96C341.785 311.893 339.892 312.36 337.812 312.36ZM337.812 309.16C339.119 309.16 340.345 308.853 341.492 308.24C342.639 307.627 343.559 306.707 344.252 305.48C344.972 304.253 345.332 302.76 345.332 301C345.332 299.24 344.985 297.747 344.292 296.52C343.599 295.293 342.692 294.387 341.572 293.8C340.452 293.187 339.239 292.88 337.932 292.88C336.599 292.88 335.372 293.187 334.252 293.8C333.159 294.387 332.279 295.293 331.612 296.52C330.945 297.747 330.612 299.24 330.612 301C330.612 302.787 330.932 304.293 331.572 305.52C332.239 306.747 333.119 307.667 334.212 308.28C335.305 308.867 336.505 309.16 337.812 309.16Z" fill="#686664"/>
<path d="M313.346 289.68C316.013 289.68 318.173 290.493 319.826 292.12C321.479 293.72 322.306 296.04 322.306 299.08V312H318.706V299.6C318.706 297.413 318.159 295.747 317.066 294.6C315.973 293.427 314.479 292.84 312.586 292.84C310.666 292.84 309.133 293.44 307.986 294.64C306.866 295.84 306.306 297.587 306.306 299.88V312H302.666V290.08H306.306V293.2C307.026 292.08 307.999 291.213 309.226 290.6C310.479 289.987 311.853 289.68 313.346 289.68Z" fill="#686664"/>
<path d="M287.197 300.2C287.197 300.893 287.157 301.627 287.077 302.4H269.557C269.691 304.56 270.424 306.253 271.757 307.48C273.117 308.68 274.757 309.28 276.677 309.28C278.251 309.28 279.557 308.92 280.597 308.2C281.664 307.453 282.411 306.467 282.837 305.24H286.757C286.171 307.347 284.997 309.067 283.237 310.4C281.477 311.707 279.291 312.36 276.677 312.36C274.597 312.36 272.731 311.893 271.077 310.96C269.451 310.027 268.171 308.707 267.237 307C266.304 305.267 265.837 303.267 265.837 301C265.837 298.733 266.291 296.747 267.197 295.04C268.104 293.333 269.371 292.027 270.997 291.12C272.651 290.187 274.544 289.72 276.677 289.72C278.757 289.72 280.597 290.173 282.197 291.08C283.797 291.987 285.024 293.24 285.877 294.84C286.757 296.413 287.197 298.2 287.197 300.2ZM283.437 299.44C283.437 298.053 283.131 296.867 282.517 295.88C281.904 294.867 281.064 294.107 279.997 293.6C278.957 293.067 277.797 292.8 276.517 292.8C274.677 292.8 273.104 293.387 271.797 294.56C270.517 295.733 269.784 297.36 269.597 299.44H283.437Z" fill="#686664"/>
<path d="M249.206 289.72C251.099 289.72 252.753 290.133 254.166 290.96C255.606 291.787 256.673 292.827 257.366 294.08V290.08H261.046V312.48C261.046 314.48 260.619 316.253 259.766 317.8C258.913 319.373 257.686 320.6 256.086 321.48C254.513 322.36 252.673 322.8 250.566 322.8C247.686 322.8 245.286 322.12 243.366 320.76C241.446 319.4 240.313 317.547 239.966 315.2H243.566C243.966 316.533 244.793 317.6 246.046 318.4C247.299 319.227 248.806 319.64 250.566 319.64C252.566 319.64 254.193 319.013 255.446 317.76C256.726 316.507 257.366 314.747 257.366 312.48V307.88C256.646 309.16 255.579 310.227 254.166 311.08C252.753 311.933 251.099 312.36 249.206 312.36C247.259 312.36 245.486 311.88 243.886 310.92C242.313 309.96 241.073 308.613 240.166 306.88C239.259 305.147 238.806 303.173 238.806 300.96C238.806 298.72 239.259 296.76 240.166 295.08C241.073 293.373 242.313 292.053 243.886 291.12C245.486 290.187 247.259 289.72 249.206 289.72ZM257.366 301C257.366 299.347 257.033 297.907 256.366 296.68C255.699 295.453 254.793 294.52 253.646 293.88C252.526 293.213 251.286 292.88 249.926 292.88C248.566 292.88 247.326 293.2 246.206 293.84C245.086 294.48 244.193 295.413 243.526 296.64C242.859 297.867 242.526 299.307 242.526 300.96C242.526 302.64 242.859 304.107 243.526 305.36C244.193 306.587 245.086 307.533 246.206 308.2C247.326 308.84 248.566 309.16 249.926 309.16C251.286 309.16 252.526 308.84 253.646 308.2C254.793 307.533 255.699 306.587 256.366 305.36C257.033 304.107 257.366 302.653 257.366 301Z" fill="#686664"/>
<path d="M211.775 300.96C211.775 298.72 212.228 296.76 213.135 295.08C214.041 293.373 215.281 292.053 216.855 291.12C218.455 290.187 220.228 289.72 222.175 289.72C224.095 289.72 225.761 290.133 227.175 290.96C228.588 291.787 229.641 292.827 230.335 294.08V290.08H234.015V312H230.335V307.92C229.615 309.2 228.535 310.267 227.095 311.12C225.681 311.947 224.028 312.36 222.135 312.36C220.188 312.36 218.428 311.88 216.855 310.92C215.281 309.96 214.041 308.613 213.135 306.88C212.228 305.147 211.775 303.173 211.775 300.96ZM230.335 301C230.335 299.347 230.001 297.907 229.335 296.68C228.668 295.453 227.761 294.52 226.615 293.88C225.495 293.213 224.255 292.88 222.895 292.88C221.535 292.88 220.295 293.2 219.175 293.84C218.055 294.48 217.161 295.413 216.495 296.64C215.828 297.867 215.495 299.307 215.495 300.96C215.495 302.64 215.828 304.107 216.495 305.36C217.161 306.587 218.055 307.533 219.175 308.2C220.295 308.84 221.535 309.16 222.895 309.16C224.255 309.16 225.495 308.84 226.615 308.2C227.761 307.533 228.668 306.587 229.335 305.36C230.001 304.107 230.335 302.653 230.335 301Z" fill="#686664"/>
<path d="M198.284 289.68C199.99 289.68 201.51 290.04 202.844 290.76C204.177 291.453 205.23 292.507 206.004 293.92C206.777 295.333 207.164 297.053 207.164 299.08V312H203.564V299.6C203.564 297.413 203.017 295.747 201.924 294.6C200.857 293.427 199.404 292.84 197.564 292.84C195.67 292.84 194.164 293.453 193.044 294.68C191.924 295.88 191.364 297.627 191.364 299.92V312H187.764V299.6C187.764 297.413 187.217 295.747 186.124 294.6C185.057 293.427 183.604 292.84 181.764 292.84C179.87 292.84 178.364 293.453 177.244 294.68C176.124 295.88 175.564 297.627 175.564 299.92V312H171.924V290.08H175.564V293.24C176.284 292.093 177.244 291.213 178.444 290.6C179.67 289.987 181.017 289.68 182.484 289.68C184.324 289.68 185.95 290.093 187.364 290.92C188.777 291.747 189.83 292.96 190.524 294.56C191.137 293.013 192.15 291.813 193.564 290.96C194.977 290.107 196.55 289.68 198.284 289.68Z" fill="#686664"/>
<path d="M165.72 284.12V312H162.08V284.12H165.72Z" fill="#686664"/>
</g>
<defs>
<clipPath id="clip0_3580_7753">
<rect width="720" height="405" fill="white"/>
</clipPath>
</defs>
</svg>
