<svg xmlns="http://www.w3.org/2000/svg" xmlns:xlink="http://www.w3.org/1999/xlink" version="1.1" width="256" height="256" viewBox="0 0 256 256" xml:space="preserve">

<defs>
</defs>
<g style="stroke: none; stroke-width: 0; stroke-dasharray: none; stroke-linecap: butt; stroke-linejoin: miter; stroke-miterlimit: 10; fill: none; fill-rule: nonzero; opacity: 1;" transform="translate(1.4065934065934016 1.4065934065934016) scale(2.81 2.81)" >
	<path d="M 74.196 90 H 14.369 V 0 h 70.016 v 79.811 C 84.385 85.438 79.823 90 74.196 90 z" style="stroke: none; stroke-width: 1; stroke-dasharray: none; stroke-linecap: butt; stroke-linejoin: miter; stroke-miterlimit: 10; fill: rgb(155,168,192); fill-rule: nonzero; opacity: 1;" transform=" matrix(1 0 0 1 0 0) " stroke-linecap="round" />
	<path d="M 75.631 90 H 16.027 c -5.75 0 -10.411 -4.661 -10.411 -10.411 V 7.781 h 55.288 l 14.728 14.728 V 90 z" style="stroke: none; stroke-width: 1; stroke-dasharray: none; stroke-linecap: butt; stroke-linejoin: miter; stroke-miterlimit: 10; fill: rgb(231,236,246); fill-rule: nonzero; opacity: 1;" transform=" matrix(1 0 0 1 0 0) " stroke-linecap="round" />
	<polygon points="75.63,22.51 60.9,22.51 60.9,7.78 " style="stroke: none; stroke-width: 1; stroke-dasharray: none; stroke-linecap: butt; stroke-linejoin: miter; stroke-miterlimit: 10; fill: rgb(198,207,225); fill-rule: nonzero; opacity: 1;" transform="  matrix(1 0 0 1 0 0) "/>
	<rect x="14.73" y="37.54" rx="0" ry="0" width="23.54" height="10.8" style="stroke: none; stroke-width: 1; stroke-dasharray: none; stroke-linecap: butt; stroke-linejoin: miter; stroke-miterlimit: 10; fill: rgb(223,117,165); fill-rule: nonzero; opacity: 1;" transform=" matrix(1 0 0 1 0 0) "/>
	<rect x="47.73" y="69.94" rx="0" ry="0" width="18.79" height="10.8" style="stroke: none; stroke-width: 1; stroke-dasharray: none; stroke-linecap: butt; stroke-linejoin: miter; stroke-miterlimit: 10; fill: rgb(255,224,125); fill-rule: nonzero; opacity: 1;" transform=" matrix(-1 -1.224647e-16 1.224647e-16 -1 114.2375 150.6891) "/>
	<path d="M 38.272 49.339 H 14.733 c -0.552 0 -1 -0.447 -1 -1 V 37.537 c 0 -0.552 0.448 -1 1 -1 h 23.539 c 0.552 0 1 0.448 1 1 v 10.802 C 39.272 48.892 38.825 49.339 38.272 49.339 z M 15.733 47.339 h 21.539 v -8.802 H 15.733 V 47.339 z" style="stroke: none; stroke-width: 1; stroke-dasharray: none; stroke-linecap: butt; stroke-linejoin: miter; stroke-miterlimit: 10; fill: rgb(223,117,165); fill-rule: nonzero; opacity: 1;" transform=" matrix(1 0 0 1 0 0) " stroke-linecap="round" />
	<path d="M 66.513 81.745 H 47.725 c -0.553 0 -1 -0.447 -1 -1 V 69.943 c 0 -0.553 0.447 -1 1 -1 h 18.788 c 0.553 0 1 0.447 1 1 v 10.802 C 67.513 81.298 67.065 81.745 66.513 81.745 z M 48.725 79.745 h 16.788 v -8.802 H 48.725 V 79.745 z" style="stroke: none; stroke-width: 1; stroke-dasharray: none; stroke-linecap: butt; stroke-linejoin: miter; stroke-miterlimit: 10; fill: rgb(255,224,125); fill-rule: nonzero; opacity: 1;" transform=" matrix(1 0 0 1 0 0) " stroke-linecap="round" />
	<path d="M 14.733 27.644 c 0.552 0 1 -0.448 1 -1 v -6.101 l 4.114 6.628 c 0.186 0.299 0.51 0.473 0.85 0.473 c 0.091 0 0.183 -0.012 0.274 -0.038 c 0.429 -0.123 0.726 -0.515 0.726 -0.962 v -9.608 c 0 -0.552 -0.448 -1 -1 -1 s -1 0.448 -1 1 v 6.101 l -4.114 -6.628 c -0.236 -0.38 -0.695 -0.556 -1.124 -0.435 c -0.429 0.123 -0.726 0.515 -0.726 0.962 v 9.608 C 13.733 27.196 14.181 27.644 14.733 27.644 z" style="stroke: none; stroke-width: 1; stroke-dasharray: none; stroke-linecap: butt; stroke-linejoin: miter; stroke-miterlimit: 10; fill: rgb(119,126,147); fill-rule: nonzero; opacity: 1;" transform=" matrix(1 0 0 1 0 0) " stroke-linecap="round" />
	<path d="M 25.483 27.644 h 4.26 c 0.552 0 1 -0.448 1 -1 s -0.448 -1 -1 -1 h -3.26 V 22.84 h 1.786 c 0.552 0 1 -0.448 1 -1 s -0.448 -1 -1 -1 h -1.786 v -2.804 h 3.26 c 0.552 0 1 -0.448 1 -1 s -0.448 -1 -1 -1 h -4.26 c -0.552 0 -1 0.448 -1 1 v 9.608 C 24.483 27.196 24.931 27.644 25.483 27.644 z" style="stroke: none; stroke-width: 1; stroke-dasharray: none; stroke-linecap: butt; stroke-linejoin: miter; stroke-miterlimit: 10; fill: rgb(119,126,147); fill-rule: nonzero; opacity: 1;" transform=" matrix(1 0 0 1 0 0) " stroke-linecap="round" />
	<path d="M 35.179 26.898 c 0.109 0.416 0.472 0.715 0.9 0.744 c 0.424 0.024 0.828 -0.22 0.991 -0.617 l 1.837 -4.456 l 1.837 4.456 c 0.155 0.376 0.521 0.619 0.924 0.619 c 0.022 0 0.045 -0.001 0.067 -0.002 c 0.429 -0.029 0.792 -0.328 0.9 -0.744 l 2.521 -9.608 c 0.14 -0.534 -0.179 -1.081 -0.713 -1.221 c -0.534 -0.143 -1.081 0.179 -1.221 0.713 l -1.765 6.726 l -1.626 -3.944 c -0.154 -0.375 -0.519 -0.619 -0.924 -0.619 s -0.77 0.245 -0.924 0.619 l -1.626 3.944 l -1.765 -6.726 c -0.14 -0.534 -0.688 -0.856 -1.221 -0.713 c -0.534 0.14 -0.854 0.687 -0.713 1.221 L 35.179 26.898 z" style="stroke: none; stroke-width: 1; stroke-dasharray: none; stroke-linecap: butt; stroke-linejoin: miter; stroke-miterlimit: 10; fill: rgb(119,126,147); fill-rule: nonzero; opacity: 1;" transform=" matrix(1 0 0 1 0 0) " stroke-linecap="round" />
	<path d="M 49.678 22.84 h 1.746 c 0.362 0 0.669 0.306 0.669 0.669 v 1.467 c 0 0.362 -0.307 0.668 -0.669 0.668 h -3.136 c -0.553 0 -1 0.448 -1 1 s 0.447 1 1 1 h 3.136 c 1.472 0 2.669 -1.197 2.669 -2.668 v -1.467 c 0 -1.472 -1.197 -2.669 -2.669 -2.669 h -1.746 c -0.362 0 -0.669 -0.306 -0.669 -0.668 v -1.467 c 0 -0.363 0.307 -0.669 0.669 -0.669 h 2.251 c 0.553 0 1 -0.448 1 -1 s -0.447 -1 -1 -1 h -2.251 c -1.472 0 -2.669 1.197 -2.669 2.669 v 1.467 C 47.009 21.643 48.206 22.84 49.678 22.84 z" style="stroke: none; stroke-width: 1; stroke-dasharray: none; stroke-linecap: butt; stroke-linejoin: miter; stroke-miterlimit: 10; fill: rgb(119,126,147); fill-rule: nonzero; opacity: 1;" transform=" matrix(1 0 0 1 0 0) " stroke-linecap="round" />
	<path d="M 47.725 38.537 h 18.788 c 0.553 0 1 -0.448 1 -1 s -0.447 -1 -1 -1 H 47.725 c -0.553 0 -1 0.448 -1 1 S 47.172 38.537 47.725 38.537 z" style="stroke: none; stroke-width: 1; stroke-dasharray: none; stroke-linecap: butt; stroke-linejoin: miter; stroke-miterlimit: 10; fill: rgb(119,126,147); fill-rule: nonzero; opacity: 1;" transform=" matrix(1 0 0 1 0 0) " stroke-linecap="round" />
	<path d="M 66.513 47.339 H 47.725 c -0.553 0 -1 0.447 -1 1 s 0.447 1 1 1 h 18.788 c 0.553 0 1 -0.447 1 -1 S 67.065 47.339 66.513 47.339 z" style="stroke: none; stroke-width: 1; stroke-dasharray: none; stroke-linecap: butt; stroke-linejoin: miter; stroke-miterlimit: 10; fill: rgb(119,126,147); fill-rule: nonzero; opacity: 1;" transform=" matrix(1 0 0 1 0 0) " stroke-linecap="round" />
	<path d="M 66.513 58.142 H 14.733 c -0.552 0 -1 0.447 -1 1 s 0.448 1 1 1 h 51.779 c 0.553 0 1 -0.447 1 -1 S 67.065 58.142 66.513 58.142 z" style="stroke: none; stroke-width: 1; stroke-dasharray: none; stroke-linecap: butt; stroke-linejoin: miter; stroke-miterlimit: 10; fill: rgb(119,126,147); fill-rule: nonzero; opacity: 1;" transform=" matrix(1 0 0 1 0 0) " stroke-linecap="round" />
	<path d="M 37.807 68.943 H 14.733 c -0.552 0 -1 0.447 -1 1 s 0.448 1 1 1 h 23.074 c 0.552 0 1 -0.447 1 -1 S 38.359 68.943 37.807 68.943 z" style="stroke: none; stroke-width: 1; stroke-dasharray: none; stroke-linecap: butt; stroke-linejoin: miter; stroke-miterlimit: 10; fill: rgb(119,126,147); fill-rule: nonzero; opacity: 1;" transform=" matrix(1 0 0 1 0 0) " stroke-linecap="round" />
	<path d="M 37.807 79.745 H 14.733 c -0.552 0 -1 0.447 -1 1 s 0.448 1 1 1 h 23.074 c 0.552 0 1 -0.447 1 -1 S 38.359 79.745 37.807 79.745 z" style="stroke: none; stroke-width: 1; stroke-dasharray: none; stroke-linecap: butt; stroke-linejoin: miter; stroke-miterlimit: 10; fill: rgb(119,126,147); fill-rule: nonzero; opacity: 1;" transform=" matrix(1 0 0 1 0 0) " stroke-linecap="round" />
</g>
</svg>